<svg xmlns="http://www.w3.org/2000/svg" width="180" height="180" viewBox="0 0 180 180" version="1.1"><path d="M 85.500 2 C 7.679 2.556, 12.639 2.091, 6.191 9.435 C -0.016 16.505, -0 16.286, -0 92.003 C 0 168.842, -0.173 166.827, 7.050 174.050 C 9.834 176.834, 12.207 178.117, 16.158 178.974 C 20.009 179.810, 41.451 180.045, 93 179.817 C 158.518 179.527, 164.764 179.355, 167.660 177.771 C 172.108 175.337, 176.898 169.243, 178.242 164.309 C 178.869 162.005, 179.747 160.344, 180.192 160.618 C 180.636 160.893, 181 129.896, 181 91.736 L 181 22.354 178.123 16.427 C 173.440 6.780, 168.213 2.585, 160 1.884 C 157.525 1.673, 124 1.725, 85.500 2 M 15.366 7.904 C 11.571 10.235, 7.680 15.294, 6.138 19.899 C 4.612 24.458, 4.539 151.801, 6.060 157.277 C 7.268 161.628, 12.026 167.445, 16.099 169.551 C 18.470 170.777, 29.873 170.997, 90.200 170.984 L 161.500 170.967 165.450 168.730 C 168.181 167.183, 170.262 164.840, 172.200 161.132 L 175 155.772 175 88.582 L 175 21.393 172.414 16.203 C 170.992 13.349, 168.404 9.998, 166.664 8.757 L 163.500 6.500 91 6.239 C 20.940 5.987, 18.395 6.043, 15.366 7.904 M 16.389 14.905 C 14.677 15.948, 12.202 18.309, 10.889 20.151 C 8.502 23.498, 8.500 23.523, 8 59.500 C 7.725 79.300, 7.514 108.325, 7.531 124 C 7.566 155.458, 7.772 156.695, 13.943 162.500 L 17.131 165.500 89.816 165.500 C 171.843 165.500, 165.759 166.097, 170.308 157.597 C 172.499 153.503, 172.500 153.460, 172.500 89.500 L 172.500 25.500 170.008 21.147 C 165.083 12.543, 169.576 12.999, 89.790 13.004 C 22.532 13.007, 19.366 13.089, 16.389 14.905 M 18.667 20.615 C 17.090 21.470, 15.003 24.001, 13.958 26.325 L 12.082 30.500 15.646 30.817 C 17.998 31.026, 19.985 32.034, 21.488 33.781 C 23.525 36.149, 24.041 36.302, 26.382 35.235 C 27.822 34.580, 29 33.358, 29 32.521 C 29 30.160, 31.997 30.727, 34.179 33.500 C 36.736 36.751, 39.346 36.668, 41.831 33.257 L 43.830 30.514 45.987 33.257 C 48.673 36.671, 51.456 36.760, 53.592 33.500 L 55.230 31 97.750 31 L 140.271 31 142.588 33.500 C 145.464 36.603, 146.592 36.628, 149.249 33.645 L 151.346 31.291 153.555 33.859 C 155.525 36.149, 156.049 36.299, 158.382 35.235 C 159.822 34.580, 161 33.358, 161 32.521 C 161 31.449, 162.034 31, 164.500 31 C 166.425 31, 168 30.761, 168 30.468 C 168 28.005, 164.499 22.665, 161.810 21.026 C 158.574 19.052, 156.978 19.008, 90 19.044 C 30.357 19.075, 21.134 19.279, 18.667 20.615 M 0.474 92 C 0.474 130.775, 0.598 146.638, 0.750 127.250 C 0.901 107.863, 0.901 76.138, 0.750 56.750 C 0.598 37.363, 0.474 53.225, 0.474 92 M 22.200 25.200 C 20.484 26.916, 20.719 31.576, 22.616 33.473 C 24.646 35.503, 26.105 35.040, 27.941 31.785 C 29.219 29.517, 29.189 28.937, 27.667 26.615 C 25.805 23.773, 24.075 23.325, 22.200 25.200 M 35.200 25.200 C 33.169 27.231, 33.723 32.782, 36.083 34.045 C 40.403 36.357, 44.068 29.211, 40.429 25.571 C 38.550 23.692, 36.830 23.570, 35.200 25.200 M 47.750 25.080 C 45.554 26.359, 45.448 31.305, 47.571 33.429 C 49.589 35.446, 50.322 35.406, 52.345 33.171 C 54.516 30.772, 54.445 27.713, 52.171 25.655 C 50.053 23.738, 50.054 23.738, 47.750 25.080 M 143.046 26.445 C 140.201 29.872, 144.124 35.666, 147.750 33.393 C 151.318 31.156, 150.035 25, 146 25 C 145.035 25, 143.705 25.650, 143.046 26.445 M 153.667 25.667 C 152.420 26.914, 152.994 31.851, 154.569 33.427 C 157.749 36.606, 162.292 31.282, 160.020 27.038 C 158.976 25.087, 155.086 24.247, 153.667 25.667 M 25.500 27 C 25.840 27.550, 26.343 28, 26.618 28 C 26.893 28, 26.840 27.550, 26.500 27 C 26.160 26.450, 25.657 26, 25.382 26 C 25.107 26, 25.160 26.450, 25.500 27 M 35.405 27.155 C 34.962 27.870, 35.130 28.038, 35.845 27.595 C 36.998 26.883, 37.393 26, 36.559 26 C 36.316 26, 35.797 26.520, 35.405 27.155 M 47.589 26.856 C 47.298 27.326, 48.172 27.499, 49.530 27.239 C 50.889 26.979, 52 26.594, 52 26.383 C 52 25.610, 48.101 26.027, 47.589 26.856 M 12 45 C 12 46.983, 12.667 47, 90 47 C 167.333 47, 168 46.983, 168 45 C 168 43.017, 167.333 43, 90 43 C 12.667 43, 12 43.017, 12 45 M 12 100 C 12 144.333, 12.030 145, 14 145 C 15.905 145, 16 144.333, 16 131 C 16 120.475, 15.690 116.996, 14.750 116.985 C 13.903 116.974, 13.983 116.628, 15 115.909 C 16.168 115.082, 16.214 114.732, 15.208 114.327 C 14.153 113.901, 14.153 113.514, 15.208 112.211 C 16.298 110.866, 16.265 110.755, 15 111.500 C 13.706 112.262, 13.689 112.151, 14.872 110.692 C 15.973 109.335, 15.998 108.703, 15 107.500 C 14.309 106.668, 14.199 106, 14.753 106 C 15.301 106, 15.750 104.911, 15.750 103.579 C 15.750 101.936, 15.308 101.328, 14.375 101.686 C 13.619 101.977, 13 101.764, 13 101.214 C 13 100.664, 13.675 99.955, 14.500 99.638 C 16.749 98.775, 16.749 61, 14.500 61 C 12.540 61, 12.580 58.563, 14.571 56.571 C 16 55.143, 15.955 55, 14.071 55 C 12.007 55, 12 55.149, 12 100 M 28.206 55.741 C 31.895 55.932, 38.195 55.934, 42.206 55.743 C 46.218 55.553, 43.200 55.396, 35.500 55.395 C 27.800 55.393, 24.518 55.549, 28.206 55.741 M 83.750 55.732 C 86.087 55.943, 89.912 55.943, 92.250 55.732 C 94.587 55.522, 92.675 55.349, 88 55.349 C 83.325 55.349, 81.412 55.522, 83.750 55.732 M 113.015 56.750 C 113.026 57.943, 113.274 58.117, 113.796 57.296 C 114.675 55.913, 155.578 55.508, 156.422 56.874 C 156.922 57.683, 155.080 58.086, 151.500 57.951 C 143.288 57.643, 143.914 56.563, 139.582 78.493 C 137.126 90.928, 135.405 97.612, 134.970 96.413 C 134.588 95.361, 132.786 86.547, 130.965 76.828 L 127.655 59.155 121.441 58.828 C 118.024 58.647, 114.502 58.645, 113.614 58.823 C 112.161 59.114, 112 63.169, 112 99.554 L 112 139.962 114.421 140.570 C 115.752 140.904, 117.665 141.019, 118.671 140.825 C 120.392 140.494, 120.516 138.543, 120.764 107.737 C 120.923 87.967, 121.403 75, 121.975 75 C 123.201 75, 124.005 78.119, 129.451 104 C 131.940 115.825, 134.265 126.625, 134.618 128 L 135.259 130.500 135.973 128 C 136.365 126.625, 139.108 114.138, 142.070 100.250 C 145.686 83.292, 147.872 75, 148.727 75 C 149.732 75, 150 81.900, 150 107.750 L 150 140.500 154 140.500 L 158 140.500 158 97.750 L 158 55 135.500 55 C 114.732 55, 113.001 55.135, 113.015 56.750 M 165.250 56.080 C 167.388 57.326, 167.575 61, 165.500 61 C 164.205 61, 164 64.603, 164 87.427 C 164 111.754, 164.139 113.890, 165.750 114.311 C 167.228 114.697, 167.190 114.788, 165.500 114.899 C 163.833 115.009, 163.749 115.192, 165 116 C 166 116.646, 166.083 116.974, 165.250 116.985 C 164.310 116.996, 164 120.475, 164 131 C 164 144.333, 164.095 145, 166 145 C 167.970 145, 168 144.333, 168 100 L 168 55 165.750 55.030 C 163.741 55.058, 163.687 55.170, 165.250 56.080 M 54.500 58 C 54.840 58.550, 55.343 59, 55.618 59 C 55.893 59, 55.840 58.550, 55.500 58 C 55.160 57.450, 54.657 57, 54.382 57 C 54.107 57, 54.160 57.450, 54.500 58 M 22 99.674 L 22 140.500 34.750 140.430 C 49.031 140.351, 51.534 139.572, 56.809 133.564 C 61.126 128.648, 62.262 123.439, 61.849 110.444 C 61.529 100.367, 61.248 98.973, 58.787 95.254 C 57.296 93.002, 55.189 90.877, 54.104 90.533 C 52.303 89.961, 52.439 89.625, 55.664 86.669 C 58.483 84.086, 59.305 82.475, 59.730 78.704 C 60.451 72.303, 57.880 65.774, 53.243 62.233 C 49.804 59.607, 49.122 59.487, 35.832 59.174 L 22 58.849 22 99.674 M 79.500 60.421 C 77.850 61.160, 75.057 63.281, 73.293 65.136 C 68.016 70.682, 67 75.202, 67 93.126 L 67 109 71 109 L 75 109 75.006 95.750 C 75.009 88.463, 75.464 80.868, 76.018 78.873 C 79.140 67.634, 93.682 65.596, 98.500 75.723 C 100.333 79.577, 100.822 79.931, 104.361 79.964 L 108.223 80 107.528 76.297 C 106.104 68.710, 101.369 62.220, 95.685 60.067 C 91.824 58.604, 83.135 58.794, 79.500 60.421 M 30.750 69.576 C 30.337 69.992, 30 73.633, 30 77.667 L 30 85 38.326 85 C 45.906 85, 46.861 84.777, 48.992 82.508 C 51.992 79.316, 52.058 74.614, 49.145 71.701 C 47.353 69.908, 45.561 69.450, 39.229 69.166 C 34.978 68.975, 31.163 69.159, 30.750 69.576 M 31.250 93.662 C 30.563 93.940, 30 95.839, 30 97.883 C 30 101.540, 29.945 101.592, 26.500 101.190 C 24.358 100.940, 23 101.212, 23 101.891 C 23 102.501, 24.575 103, 26.500 103 C 29.722 103, 30 103.238, 30 106 C 30 108.762, 29.722 109, 26.500 109 C 24.575 109, 23 109.499, 23 110.109 C 23 110.788, 24.358 111.060, 26.500 110.810 L 30 110.402 30 121.201 L 30 132 37.550 132 C 46.081 132, 49.997 130.497, 51.805 126.528 C 52.505 124.992, 52.998 119.267, 52.996 112.703 C 52.991 96.321, 50.416 92.909, 38.185 93.079 C 35.058 93.122, 31.938 93.385, 31.250 93.662 M 129.750 93.662 C 130.438 93.940, 131.563 93.940, 132.250 93.662 C 132.938 93.385, 132.375 93.158, 131 93.158 C 129.625 93.158, 129.063 93.385, 129.750 93.662 M 138.750 93.662 C 139.438 93.940, 140.563 93.940, 141.250 93.662 C 141.938 93.385, 141.375 93.158, 140 93.158 C 138.625 93.158, 138.063 93.385, 138.750 93.662 M 54 102 C 54 102.550, 55.602 103, 57.559 103 C 59.677 103, 60.868 102.595, 60.500 102 C 60.160 101.450, 58.559 101, 56.941 101 C 55.323 101, 54 101.450, 54 102 M 68 102 C 68 102.550, 69.350 103, 71 103 C 72.650 103, 74 102.550, 74 102 C 74 101.450, 72.650 101, 71 101 C 69.350 101, 68 101.450, 68 102 M 113 102 C 113 102.550, 114.602 103, 116.559 103 C 118.677 103, 119.868 102.595, 119.500 102 C 119.160 101.450, 117.559 101, 115.941 101 C 114.323 101, 113 101.450, 113 102 M 151 102 C 151 102.550, 152.377 103, 154.059 103 C 155.844 103, 156.861 102.583, 156.500 102 C 156.160 101.450, 154.784 101, 153.441 101 C 152.098 101, 151 101.450, 151 102 M 54.500 110 C 54.840 110.550, 56.441 111, 58.059 111 C 59.677 111, 61 110.550, 61 110 C 61 109.450, 59.398 109, 57.441 109 C 55.323 109, 54.132 109.405, 54.500 110 M 113 110 C 113 110.550, 114.323 111, 115.941 111 C 117.559 111, 119.160 110.550, 119.500 110 C 119.868 109.405, 118.677 109, 116.559 109 C 114.602 109, 113 109.450, 113 110 M 151 110 C 151 110.550, 152.350 111, 154 111 C 155.650 111, 157 110.550, 157 110 C 157 109.450, 155.650 109, 154 109 C 152.350 109, 151 109.450, 151 110 M 67 117.233 C 67 130.086, 73.162 138.405, 84.154 140.394 C 89.171 141.301, 95.481 140.143, 99.305 137.612 C 102.538 135.473, 108 126.181, 108 122.821 C 108 121.363, 107.202 121, 104 121 C 100.603 121, 100 121.317, 100 123.100 C 100 124.255, 98.415 126.785, 96.478 128.722 C 93.137 132.063, 92.674 132.221, 87.470 131.789 C 78.756 131.066, 75.024 126.040, 75.002 115 L 74.994 110.500 70.997 110.451 L 67 110.403 67 117.233 M 24.250 117.689 C 25.212 117.941, 26.788 117.941, 27.750 117.689 C 28.712 117.438, 27.925 117.232, 26 117.232 C 24.075 117.232, 23.288 117.438, 24.250 117.689 M 56.250 117.689 C 57.212 117.941, 58.788 117.941, 59.750 117.689 C 60.712 117.438, 59.925 117.232, 58 117.232 C 56.075 117.232, 55.288 117.438, 56.250 117.689 M 69.250 117.689 C 70.213 117.941, 71.787 117.941, 72.750 117.689 C 73.713 117.438, 72.925 117.232, 71 117.232 C 69.075 117.232, 68.287 117.438, 69.250 117.689 M 114.762 117.707 C 116.006 117.946, 117.806 117.937, 118.762 117.687 C 119.718 117.437, 118.700 117.241, 116.500 117.252 C 114.300 117.263, 113.518 117.468, 114.762 117.707 M 152.250 117.689 C 153.213 117.941, 154.787 117.941, 155.750 117.689 C 156.713 117.438, 155.925 117.232, 154 117.232 C 152.075 117.232, 151.287 117.438, 152.250 117.689 M 165 121 C 165 121.733, 165.300 122.033, 165.667 121.667 C 166.033 121.300, 166.033 120.700, 165.667 120.333 C 165.300 119.967, 165 120.267, 165 121 M 52.750 152.750 C 73.238 152.901, 106.762 152.901, 127.250 152.750 C 147.738 152.599, 130.975 152.475, 90 152.475 C 49.025 152.475, 32.262 152.599, 52.750 152.750" stroke="none" fill="#1e3e53" fill-rule="evenodd"/><path d="M 11.804 2.041 C 5.910 5.153, 0.112 14.281, 0.077 20.500 C 0.070 21.600, 0.890 20.113, 1.897 17.196 C 3.972 11.189, 7.792 6.696, 13.179 3.924 C 16.687 2.120, 20.269 2.029, 90.410 1.981 C 170.523 1.925, 166.365 1.638, 172.365 7.638 C 173.918 9.191, 176.027 12.045, 177.050 13.981 C 179.270 18.179, 179.560 17.584, 177.591 12.872 C 175.476 7.812, 172.254 4.170, 167.945 1.972 C 164.198 0.060, 161.802 0.001, 89.790 0.044 C 18.082 0.087, 15.372 0.156, 11.804 2.041 M 15.366 7.904 C 11.571 10.235, 7.680 15.294, 6.138 19.899 C 4.612 24.458, 4.539 151.801, 6.060 157.277 C 7.268 161.628, 12.026 167.445, 16.099 169.551 C 18.470 170.777, 29.873 170.997, 90.200 170.984 L 161.500 170.967 165.450 168.730 C 168.181 167.183, 170.262 164.840, 172.200 161.132 L 175 155.772 175 88.582 L 175 21.393 172.414 16.203 C 170.992 13.349, 168.404 9.998, 166.664 8.757 L 163.500 6.500 91 6.239 C 20.940 5.987, 18.395 6.043, 15.366 7.904 M 16.389 14.905 C 14.677 15.948, 12.202 18.309, 10.889 20.151 C 8.502 23.498, 8.500 23.523, 8 59.500 C 7.725 79.300, 7.514 108.325, 7.531 124 C 7.566 155.458, 7.772 156.695, 13.943 162.500 L 17.131 165.500 89.816 165.500 C 171.843 165.500, 165.759 166.097, 170.308 157.597 C 172.499 153.503, 172.500 153.460, 172.500 89.500 L 172.500 25.500 170.008 21.147 C 165.083 12.543, 169.576 12.999, 89.790 13.004 C 22.532 13.007, 19.366 13.089, 16.389 14.905 M 18.667 20.615 C 17.090 21.470, 15.003 24.001, 13.958 26.325 L 12.082 30.500 15.646 30.817 C 17.998 31.026, 19.985 32.034, 21.488 33.781 C 23.525 36.149, 24.041 36.302, 26.382 35.235 C 27.822 34.580, 29 33.358, 29 32.521 C 29 30.160, 31.997 30.727, 34.179 33.500 C 36.736 36.751, 39.346 36.668, 41.831 33.257 L 43.830 30.514 45.987 33.257 C 48.673 36.671, 51.456 36.760, 53.592 33.500 L 55.230 31 97.750 31 L 140.271 31 142.588 33.500 C 145.464 36.603, 146.592 36.628, 149.249 33.645 L 151.346 31.291 153.555 33.859 C 155.525 36.149, 156.049 36.299, 158.382 35.235 C 159.822 34.580, 161 33.358, 161 32.521 C 161 31.449, 162.034 31, 164.500 31 C 166.425 31, 168 30.761, 168 30.468 C 168 28.005, 164.499 22.665, 161.810 21.026 C 158.574 19.052, 156.978 19.008, 90 19.044 C 30.357 19.075, 21.134 19.279, 18.667 20.615 M 22.200 25.200 C 20.484 26.916, 20.719 31.576, 22.616 33.473 C 24.646 35.503, 26.105 35.040, 27.941 31.785 C 29.219 29.517, 29.189 28.937, 27.667 26.615 C 25.805 23.773, 24.075 23.325, 22.200 25.200 M 35.200 25.200 C 33.169 27.231, 33.723 32.782, 36.083 34.045 C 40.403 36.357, 44.068 29.211, 40.429 25.571 C 38.550 23.692, 36.830 23.570, 35.200 25.200 M 47.750 25.080 C 45.554 26.359, 45.448 31.305, 47.571 33.429 C 49.589 35.446, 50.322 35.406, 52.345 33.171 C 54.516 30.772, 54.445 27.713, 52.171 25.655 C 50.053 23.738, 50.054 23.738, 47.750 25.080 M 143.046 26.445 C 140.201 29.872, 144.124 35.666, 147.750 33.393 C 151.318 31.156, 150.035 25, 146 25 C 145.035 25, 143.705 25.650, 143.046 26.445 M 153.667 25.667 C 152.420 26.914, 152.994 31.851, 154.569 33.427 C 157.749 36.606, 162.292 31.282, 160.020 27.038 C 158.976 25.087, 155.086 24.247, 153.667 25.667 M 25.500 27 C 25.840 27.550, 26.343 28, 26.618 28 C 26.893 28, 26.840 27.550, 26.500 27 C 26.160 26.450, 25.657 26, 25.382 26 C 25.107 26, 25.160 26.450, 25.500 27 M 35.405 27.155 C 34.962 27.870, 35.130 28.038, 35.845 27.595 C 36.998 26.883, 37.393 26, 36.559 26 C 36.316 26, 35.797 26.520, 35.405 27.155 M 47.589 26.856 C 47.298 27.326, 48.172 27.499, 49.530 27.239 C 50.889 26.979, 52 26.594, 52 26.383 C 52 25.610, 48.101 26.027, 47.589 26.856 M 12 45 C 12 46.983, 12.667 47, 90 47 C 167.333 47, 168 46.983, 168 45 C 168 43.017, 167.333 43, 90 43 C 12.667 43, 12 43.017, 12 45 M 12 100 C 12 144.333, 12.030 145, 14 145 C 15.905 145, 16 144.333, 16 131 C 16 120.475, 15.690 116.996, 14.750 116.985 C 13.903 116.974, 13.983 116.628, 15 115.909 C 16.168 115.082, 16.214 114.732, 15.208 114.327 C 14.153 113.901, 14.153 113.514, 15.208 112.211 C 16.298 110.866, 16.265 110.755, 15 111.500 C 13.706 112.262, 13.689 112.151, 14.872 110.692 C 15.973 109.335, 15.998 108.703, 15 107.500 C 14.309 106.668, 14.199 106, 14.753 106 C 15.301 106, 15.750 104.911, 15.750 103.579 C 15.750 101.936, 15.308 101.328, 14.375 101.686 C 13.619 101.977, 13 101.764, 13 101.214 C 13 100.664, 13.675 99.955, 14.500 99.638 C 16.749 98.775, 16.749 61, 14.500 61 C 12.540 61, 12.580 58.563, 14.571 56.571 C 16 55.143, 15.955 55, 14.071 55 C 12.007 55, 12 55.149, 12 100 M 28.206 55.741 C 31.895 55.932, 38.195 55.934, 42.206 55.743 C 46.218 55.553, 43.200 55.396, 35.500 55.395 C 27.800 55.393, 24.518 55.549, 28.206 55.741 M 83.750 55.732 C 86.087 55.943, 89.912 55.943, 92.250 55.732 C 94.587 55.522, 92.675 55.349, 88 55.349 C 83.325 55.349, 81.412 55.522, 83.750 55.732 M 113.015 56.750 C 113.026 57.943, 113.274 58.117, 113.796 57.296 C 114.675 55.913, 155.578 55.508, 156.422 56.874 C 156.922 57.683, 155.080 58.086, 151.500 57.951 C 143.288 57.643, 143.914 56.563, 139.582 78.493 C 137.126 90.928, 135.405 97.612, 134.970 96.413 C 134.588 95.361, 132.786 86.547, 130.965 76.828 L 127.655 59.155 121.441 58.828 C 118.024 58.647, 114.502 58.645, 113.614 58.823 C 112.161 59.114, 112 63.169, 112 99.554 L 112 139.962 114.421 140.570 C 115.752 140.904, 117.665 141.019, 118.671 140.825 C 120.392 140.494, 120.516 138.543, 120.764 107.737 C 120.923 87.967, 121.403 75, 121.975 75 C 123.201 75, 124.005 78.119, 129.451 104 C 131.940 115.825, 134.265 126.625, 134.618 128 L 135.259 130.500 135.973 128 C 136.365 126.625, 139.108 114.138, 142.070 100.250 C 145.686 83.292, 147.872 75, 148.727 75 C 149.732 75, 150 81.900, 150 107.750 L 150 140.500 154 140.500 L 158 140.500 158 97.750 L 158 55 135.500 55 C 114.732 55, 113.001 55.135, 113.015 56.750 M 165.250 56.080 C 167.388 57.326, 167.575 61, 165.500 61 C 164.205 61, 164 64.603, 164 87.427 C 164 111.754, 164.139 113.890, 165.750 114.311 C 167.228 114.697, 167.190 114.788, 165.500 114.899 C 163.833 115.009, 163.749 115.192, 165 116 C 166 116.646, 166.083 116.974, 165.250 116.985 C 164.310 116.996, 164 120.475, 164 131 C 164 144.333, 164.095 145, 166 145 C 167.970 145, 168 144.333, 168 100 L 168 55 165.750 55.030 C 163.741 55.058, 163.687 55.170, 165.250 56.080 M 54.500 58 C 54.840 58.550, 55.343 59, 55.618 59 C 55.893 59, 55.840 58.550, 55.500 58 C 55.160 57.450, 54.657 57, 54.382 57 C 54.107 57, 54.160 57.450, 54.500 58 M 22 99.674 L 22 140.500 34.750 140.430 C 49.031 140.351, 51.534 139.572, 56.809 133.564 C 61.126 128.648, 62.262 123.439, 61.849 110.444 C 61.529 100.367, 61.248 98.973, 58.787 95.254 C 57.296 93.002, 55.189 90.877, 54.104 90.533 C 52.303 89.961, 52.439 89.625, 55.664 86.669 C 58.483 84.086, 59.305 82.475, 59.730 78.704 C 60.451 72.303, 57.880 65.774, 53.243 62.233 C 49.804 59.607, 49.122 59.487, 35.832 59.174 L 22 58.849 22 99.674 M 79.500 60.421 C 77.850 61.160, 75.057 63.281, 73.293 65.136 C 68.016 70.682, 67 75.202, 67 93.126 L 67 109 71 109 L 75 109 75.006 95.750 C 75.009 88.463, 75.464 80.868, 76.018 78.873 C 79.140 67.634, 93.682 65.596, 98.500 75.723 C 100.333 79.577, 100.822 79.931, 104.361 79.964 L 108.223 80 107.528 76.297 C 106.104 68.710, 101.369 62.220, 95.685 60.067 C 91.824 58.604, 83.135 58.794, 79.500 60.421 M 30.750 69.576 C 30.337 69.992, 30 73.633, 30 77.667 L 30 85 38.326 85 C 45.906 85, 46.861 84.777, 48.992 82.508 C 51.992 79.316, 52.058 74.614, 49.145 71.701 C 47.353 69.908, 45.561 69.450, 39.229 69.166 C 34.978 68.975, 31.163 69.159, 30.750 69.576 M 31.250 93.662 C 30.563 93.940, 30 95.839, 30 97.883 C 30 101.540, 29.945 101.592, 26.500 101.190 C 24.358 100.940, 23 101.212, 23 101.891 C 23 102.501, 24.575 103, 26.500 103 C 29.722 103, 30 103.238, 30 106 C 30 108.762, 29.722 109, 26.500 109 C 24.575 109, 23 109.499, 23 110.109 C 23 110.788, 24.358 111.060, 26.500 110.810 L 30 110.402 30 121.201 L 30 132 37.550 132 C 46.081 132, 49.997 130.497, 51.805 126.528 C 52.505 124.992, 52.998 119.267, 52.996 112.703 C 52.991 96.321, 50.416 92.909, 38.185 93.079 C 35.058 93.122, 31.938 93.385, 31.250 93.662 M 129.750 93.662 C 130.438 93.940, 131.563 93.940, 132.250 93.662 C 132.938 93.385, 132.375 93.158, 131 93.158 C 129.625 93.158, 129.063 93.385, 129.750 93.662 M 138.750 93.662 C 139.438 93.940, 140.563 93.940, 141.250 93.662 C 141.938 93.385, 141.375 93.158, 140 93.158 C 138.625 93.158, 138.063 93.385, 138.750 93.662 M 54 102 C 54 102.550, 55.602 103, 57.559 103 C 59.677 103, 60.868 102.595, 60.500 102 C 60.160 101.450, 58.559 101, 56.941 101 C 55.323 101, 54 101.450, 54 102 M 68 102 C 68 102.550, 69.350 103, 71 103 C 72.650 103, 74 102.550, 74 102 C 74 101.450, 72.650 101, 71 101 C 69.350 101, 68 101.450, 68 102 M 113 102 C 113 102.550, 114.602 103, 116.559 103 C 118.677 103, 119.868 102.595, 119.500 102 C 119.160 101.450, 117.559 101, 115.941 101 C 114.323 101, 113 101.450, 113 102 M 151 102 C 151 102.550, 152.377 103, 154.059 103 C 155.844 103, 156.861 102.583, 156.500 102 C 156.160 101.450, 154.784 101, 153.441 101 C 152.098 101, 151 101.450, 151 102 M 54.500 110 C 54.840 110.550, 56.441 111, 58.059 111 C 59.677 111, 61 110.550, 61 110 C 61 109.450, 59.398 109, 57.441 109 C 55.323 109, 54.132 109.405, 54.500 110 M 113 110 C 113 110.550, 114.323 111, 115.941 111 C 117.559 111, 119.160 110.550, 119.500 110 C 119.868 109.405, 118.677 109, 116.559 109 C 114.602 109, 113 109.450, 113 110 M 151 110 C 151 110.550, 152.350 111, 154 111 C 155.650 111, 157 110.550, 157 110 C 157 109.450, 155.650 109, 154 109 C 152.350 109, 151 109.450, 151 110 M 67 117.233 C 67 130.086, 73.162 138.405, 84.154 140.394 C 89.171 141.301, 95.481 140.143, 99.305 137.612 C 102.538 135.473, 108 126.181, 108 122.821 C 108 121.363, 107.202 121, 104 121 C 100.603 121, 100 121.317, 100 123.100 C 100 124.255, 98.415 126.785, 96.478 128.722 C 93.137 132.063, 92.674 132.221, 87.470 131.789 C 78.756 131.066, 75.024 126.040, 75.002 115 L 74.994 110.500 70.997 110.451 L 67 110.403 67 117.233 M 24.250 117.689 C 25.212 117.941, 26.788 117.941, 27.750 117.689 C 28.712 117.438, 27.925 117.232, 26 117.232 C 24.075 117.232, 23.288 117.438, 24.250 117.689 M 56.250 117.689 C 57.212 117.941, 58.788 117.941, 59.750 117.689 C 60.712 117.438, 59.925 117.232, 58 117.232 C 56.075 117.232, 55.288 117.438, 56.250 117.689 M 69.250 117.689 C 70.213 117.941, 71.787 117.941, 72.750 117.689 C 73.713 117.438, 72.925 117.232, 71 117.232 C 69.075 117.232, 68.287 117.438, 69.250 117.689 M 114.762 117.707 C 116.006 117.946, 117.806 117.937, 118.762 117.687 C 119.718 117.437, 118.700 117.241, 116.500 117.252 C 114.300 117.263, 113.518 117.468, 114.762 117.707 M 152.250 117.689 C 153.213 117.941, 154.787 117.941, 155.750 117.689 C 156.713 117.438, 155.925 117.232, 154 117.232 C 152.075 117.232, 151.287 117.438, 152.250 117.689 M 165 121 C 165 121.733, 165.300 122.033, 165.667 121.667 C 166.033 121.300, 166.033 120.700, 165.667 120.333 C 165.300 119.967, 165 120.267, 165 121 M 52.750 152.750 C 73.238 152.901, 106.762 152.901, 127.250 152.750 C 147.738 152.599, 130.975 152.475, 90 152.475 C 49.025 152.475, 32.262 152.599, 52.750 152.750" stroke="none" fill="#d5d2cb" fill-rule="evenodd"/></svg>