<?xml version="1.0" standalone="no"?>
<!DOCTYPE svg PUBLIC "-//W3C//DTD SVG 20010904//EN"
 "http://www.w3.org/TR/2001/REC-SVG-20010904/DTD/svg10.dtd">
<svg version="1.0" xmlns="http://www.w3.org/2000/svg"
 width="689.000000pt" height="481.000000pt" viewBox="0 0 16 16"
 preserveAspectRatio="xMidYMid meet">

<g transform="translate(0.000000,481.000000) scale(0.100000,-0.100000)"
fill="#000000" stroke="none">
<path d="M0 4790 c0 -11 2 -20 4 -20 2 0 6 9 9 20 3 11 1 20 -4 20 -5 0 -9 -9
-9 -20z"/>
<path d="M3200 4416 c-229 -42 -456 -116 -760 -246 -605 -259 -1002 -373
-1350 -387 l-145 -5 -145 97 c-79 54 -164 107 -189 118 -111 49 -231 -30 -231
-153 0 -81 30 -113 245 -259 83 -56 164 -112 180 -126 l30 -25 3 -880 c1 -484
-1 -880 -4 -880 -4 0 -45 28 -93 62 -112 80 -161 102 -217 95 -50 -5 -107 -44
-129 -87 -21 -41 -19 -113 5 -160 23 -45 62 -76 455 -356 395 -282 480 -340
648 -438 485 -284 939 -457 1408 -536 311 -52 502 -62 780 -39 155 12 490 75
658 124 446 128 969 386 1395 687 169 120 252 178 471 332 116 82 226 164 246
183 86 82 70 222 -32 273 -74 38 -142 18 -279 -83 l-75 -55 -3 875 c-1 610 1
880 9 889 11 13 113 88 277 202 143 100 174 148 158 238 -10 49 -68 111 -118
125 -71 19 -111 4 -258 -96 -200 -136 -180 -129 -345 -122 -366 16 -798 137
-1327 373 -296 133 -486 198 -703 244 -131 27 -452 36 -565 16z m-980 -1350
c116 -4 190 -30 259 -92 70 -63 104 -137 109 -242 8 -149 -29 -236 -119 -282
-21 -11 -39 -24 -39 -28 0 -4 24 -16 53 -26 123 -43 195 -176 184 -340 -12
-178 -102 -300 -263 -356 -68 -24 -77 -25 -446 -28 l-378 -3 0 703 0 703 272
-2 c150 -2 316 -5 368 -7z m1320 -16 c109 -37 156 -69 233 -159 47 -55 107
-158 107 -184 0 -9 -28 -24 -77 -42 -43 -15 -99 -38 -125 -51 l-48 -24 -21 41
c-36 72 -105 137 -162 154 -62 18 -149 19 -199 1 -49 -18 -114 -71 -143 -116
-46 -72 -59 -143 -59 -300 1 -122 4 -154 22 -203 53 -143 149 -217 282 -217
65 0 125 18 170 52 35 25 85 100 95 141 4 15 11 27 15 27 4 0 50 -25 101 -55
52 -31 108 -61 126 -67 18 -7 33 -15 33 -18 0 -3 -10 -26 -21 -51 -81 -166
-216 -271 -394 -304 -323 -61 -594 100 -699 415 -33 99 -48 252 -37 372 20
204 73 330 190 449 85 87 158 128 271 154 91 20 254 13 340 -15z m800 16 c0
-8 14 -45 30 -82 17 -37 53 -126 80 -198 27 -72 69 -178 93 -236 24 -58 56
-136 72 -173 15 -38 31 -65 36 -60 4 4 28 62 52 128 74 197 217 568 233 603
l15 32 177 -2 177 -3 3 -702 2 -703 -146 0 -145 0 3 463 3 463 -27 -70 c-15
-39 -74 -195 -131 -346 -58 -151 -124 -328 -148 -393 l-43 -118 -34 3 c-35 3
-35 3 -78 118 -124 331 -191 510 -242 650 l-57 155 -3 -462 -2 -463 -144 0
-144 0 5 698 c2 383 4 700 4 705 -1 4 80 7 179 7 148 0 180 -2 180 -14z"/>
<path d="M1884 2764 c3 -26 6 -93 6 -150 l0 -104 125 0 c155 0 213 12 250 50
40 42 47 122 15 178 -36 63 -66 72 -247 72 l-156 0 7 -46z"/>
<path d="M1896 2262 c-15 -3 -17 -10 -12 -40 3 -21 6 -92 6 -159 l0 -123 166
0 c99 0 183 5 206 12 79 24 122 110 98 199 -16 58 -58 95 -125 109 -48 10
-288 11 -339 2z"/>
<path d="M0 20 c0 -11 4 -20 9 -20 5 0 7 9 4 20 -3 11 -7 20 -9 20 -2 0 -4 -9
-4 -20z"/>
<path d="M6881 14 c0 -11 3 -14 6 -6 3 7 2 16 -1 19 -3 4 -6 -2 -5 -13z"/>
</g>
</svg>
